<?xml version="1.0" standalone="no"?>
<!DOCTYPE svg PUBLIC "-//W3C//DTD SVG 20010904//EN"
 "http://www.w3.org/TR/2001/REC-SVG-20010904/DTD/svg10.dtd">
<svg version="1.0" xmlns="http://www.w3.org/2000/svg"
 width="256.000000pt" height="256.000000pt" viewBox="0 0 256.000000 256.000000"
 preserveAspectRatio="xMidYMid meet">
<metadata>
Created by potrace 1.14, written by Peter Selinger 2001-2017
</metadata>
<g transform="translate(0.000000,256.000000) scale(0.100000,-0.100000)"
fill="#000000" stroke="none">
<path d="M1278 2546 c-1 -2 -38 -6 -81 -10 -235 -20 -480 -170 -604 -371 -48
-77 -94 -190 -107 -261 -3 -16 -8 -40 -11 -54 -9 -42 -6 -212 5 -270 26 -140
102 -310 219 -495 35 -55 91 -142 123 -192 79 -126 210 -364 343 -625 l110
-217 15 32 c8 18 18 34 23 35 4 2 5 8 1 13 -3 5 0 9 6 9 6 0 9 4 6 8 -8 13 42
114 53 108 5 -4 13 -2 16 4 4 6 3 9 -2 8 -16 -6 -14 8 12 65 15 31 31 57 37
57 6 0 9 3 5 6 -3 4 13 42 36 86 23 43 50 95 60 114 10 21 22 32 29 28 7 -4 8
-3 4 4 -9 15 12 54 24 47 6 -3 7 1 4 9 -3 8 1 25 10 38 9 13 63 95 122 183 59
88 110 162 114 165 17 11 114 171 150 245 58 123 83 236 84 385 0 150 -7 200
-45 304 -106 292 -373 503 -669 531 -36 4 -70 8 -77 10 -6 2 -13 2 -15 1z"/>
<path d="M1493 385 c0 -8 4 -12 9 -9 5 3 6 10 3 15 -9 13 -12 11 -12 -6z"/>
<path d="M1454 342 c4 -3 14 -7 22 -8 9 -1 13 0 10 4 -4 3 -14 7 -22 8 -9 1
-13 0 -10 -4z"/>
<path d="M1541 316 c-9 -11 -9 -16 1 -22 7 -4 10 -4 6 1 -4 4 -3 14 3 22 6 7
9 13 6 13 -2 0 -10 -6 -16 -14z"/>
<path d="M1646 322 c-3 -5 1 -9 9 -9 8 0 12 4 9 9 -3 4 -7 8 -9 8 -2 0 -6 -4
-9 -8z"/>
<path d="M1410 260 c0 -5 5 -10 11 -10 5 0 7 5 4 10 -3 6 -8 10 -11 10 -2 0
-4 -4 -4 -10z"/>
<path d="M1555 259 c-3 -4 2 -6 10 -5 21 3 28 13 10 13 -9 0 -18 -4 -20 -8z"/>
<path d="M1515 189 c-4 -6 -5 -12 -2 -15 2 -3 7 2 10 11 7 17 1 20 -8 4z"/>
<path d="M1410 140 c0 -5 5 -10 11 -10 5 0 7 5 4 10 -3 6 -8 10 -11 10 -2 0
-4 -4 -4 -10z"/>
<path d="M1336 102 c-3 -5 1 -9 9 -9 8 0 12 4 9 9 -3 4 -7 8 -9 8 -2 0 -6 -4
-9 -8z"/>
</g>
</svg>
